<svg xmlns="http://www.w3.org/2000/svg" width="37.5" height="37.5" viewBox="0 0 37.5 37.5"><defs><style>.a{fill:#8d7908;}</style></defs><path class="a" d="M33.583.25H4.417A4.179,4.179,0,0,0,.25,4.417V33.583A4.179,4.179,0,0,0,4.417,37.75H33.583a4.179,4.179,0,0,0,4.167-4.167V4.417A4.179,4.179,0,0,0,33.583.25ZM16.917,10.667H12.75v4.167A4.179,4.179,0,0,1,8.583,19a4.179,4.179,0,0,1,4.167,4.167v4.167h4.167V31.5H12.75a4.179,4.179,0,0,1-4.167-4.167V25.25a4.179,4.179,0,0,0-4.167-4.167V16.917A4.179,4.179,0,0,0,8.583,12.75V10.667A4.179,4.179,0,0,1,12.75,6.5h4.167ZM33.583,21.083a4.179,4.179,0,0,0-4.167,4.167v2.083A4.179,4.179,0,0,1,25.25,31.5H21.083V27.333H25.25V23.167A4.179,4.179,0,0,1,29.417,19a4.179,4.179,0,0,1-4.167-4.167V10.667H21.083V6.5H25.25a4.179,4.179,0,0,1,4.167,4.167V12.75a4.179,4.179,0,0,0,4.167,4.167Z" transform="translate(-0.25 -0.25)"/></svg>