<svg xmlns="http://www.w3.org/2000/svg" width="43" height="44.208" viewBox="0 0 43 44.208"><defs><style>.a{fill:#8d7908;}</style></defs><path class="a" d="M40.25,33.358c0-1.932,1.725-3.7,4.456-4.562L51,26.8,32.188,3H26.813L8,26.8,14.294,28.8c2.73.864,4.456,2.63,4.456,4.562v.248H13.375v13.6h32.25v-13.6H40.25ZM16.7,25.754l-1.486-.469L26.813,10.6V23.4h5.375V10.6l11.6,14.679-1.486.469c-4.582,1.45-7.428,4.365-7.428,7.606v.248H24.125v-.248C24.125,30.117,21.279,27.2,16.7,25.754ZM40.25,43.808H18.75v-6.8h21.5Z" transform="translate(-8 -3)"/></svg>