<svg xmlns="http://www.w3.org/2000/svg" width="19.004" height="17.995" viewBox="0 0 19.004 17.995"><defs><style>.a{fill:#8d7908;}</style></defs><path class="a" d="M7.75,17.85c1.78-.7,1.39-2.63.49-3.85a12.259,12.259,0,0,0-3.36-2.94A9.819,9.819,0,0,1,2.54,9c-.28-.33-.85-.94-.27-1.06s1.61.46,2.13.68A18.808,18.808,0,0,1,7.05,9.96l1.01-1.7A14.131,14.131,0,0,0,2.64,6.05C1.58,5.89.46,6.11.1,7.26a3.157,3.157,0,0,0,.77,2.77c1.37,1.83,3.5,2.71,5.09,4.29a4.05,4.05,0,0,1,.95,1.18c.21.44.16.47-.31.47-1.24,0-2.79-.97-3.8-1.61l-1.01,1.7C3.32,17,5.88,18.47,7.75,17.85ZM18.84,2.25a.555.555,0,0,0,0-.79L17.54.16a.562.562,0,0,0-.78,0L15.74,1.18l2.08,2.08ZM9,7.92V10h2.08l6.15-6.15L15.15,1.77Z" transform="translate(-0.001 -0.003)"/></svg>