<svg xmlns="http://www.w3.org/2000/svg" width="44.208" height="44.208" viewBox="0 0 44.208 44.208"><defs><style>.a{fill:#8d7908;}</style></defs><path class="a" d="M4.25,33.937V41.75h7.813L35.1,18.687l-7.813-7.812ZM45.1,36.25,36.25,45.1,25.417,34.27,29.1,30.583l2.083,2.083L36.333,27.5l2.958,2.958L36.25,33.416,38.458,35.5l2.958-2.917ZM11.771,20.562.9,9.75,9.75.9l3.667,3.688L8.271,9.75,10.5,11.958l5.125-5.167L18.583,9.75l-2.958,2.937,2.083,2.083Zm29.375-7.979a2.075,2.075,0,0,0,0-2.937L36.271,4.854a2.075,2.075,0,0,0-2.937,0L29.5,8.666l7.812,7.813Z" transform="translate(-0.896 -0.895)"/></svg>