<svg xmlns="http://www.w3.org/2000/svg" width="44.792" height="40.071" viewBox="0 0 44.792 40.071"><defs><style>.a{fill:#8d7908;}</style></defs><path class="a" d="M23,17.063A3.9,3.9,0,1,1,19.1,21,3.912,3.912,0,0,1,23,17.063Zm-9.646,20.6c1.313.792,4.188-.417,7.5-3.542a50.468,50.468,0,0,1-3.146-3.958,47.3,47.3,0,0,1-5-.75C11.646,33.875,12.042,36.938,13.354,37.667Zm1.479-11.958-.6-1.062a16.492,16.492,0,0,0-.6,1.792c.563.125,1.188.229,1.833.333Zm13.625-1.583L30.146,21l-1.687-3.125c-.625-1.1-1.292-2.083-1.9-3.062C25.438,14.75,24.25,14.75,23,14.75s-2.437,0-3.562.063c-.6.979-1.271,1.958-1.9,3.063L15.854,21l1.688,3.125c.625,1.1,1.292,2.083,1.9,3.063,1.125.063,2.313.063,3.563.063s2.438,0,3.563-.062C27.167,26.208,27.833,25.229,28.458,24.125ZM23,10.125c-.4.458-.812.938-1.229,1.5h2.458C23.813,11.063,23.4,10.583,23,10.125Zm0,21.75c.4-.458.813-.937,1.229-1.5H21.771C22.188,30.938,22.6,31.417,23,31.875ZM32.625,4.333c-1.292-.792-4.167.417-7.479,3.542a50.464,50.464,0,0,1,3.146,3.958,47.26,47.26,0,0,1,5,.75C34.354,8.125,33.958,5.063,32.625,4.333ZM31.167,16.292l.6,1.063a16.5,16.5,0,0,0,.6-1.792c-.563-.125-1.188-.229-1.833-.333ZM34.188,1.6c3.063,1.75,3.4,6.354,2.1,11.729C41.583,14.9,45.4,17.479,45.4,21s-3.812,6.1-9.1,7.667c1.292,5.375.958,9.979-2.1,11.729C31.146,42.146,27,40.146,23,36.333c-4,3.813-8.146,5.813-11.208,4.063-3.042-1.75-3.375-6.354-2.083-11.729C4.417,27.1.6,24.521.6,21s3.813-6.1,9.1-7.667C8.417,7.958,8.75,3.354,11.792,1.6,14.854-.146,19,1.854,23,5.667,27,1.854,31.146-.146,34.188,1.6Zm-.6,19.4a46.9,46.9,0,0,1,1.854,4.708C39.813,24.4,42.271,22.521,42.271,21s-2.458-3.4-6.833-4.708A46.909,46.909,0,0,1,33.583,21ZM12.417,21a46.907,46.907,0,0,1-1.854-4.708C6.188,17.6,3.729,19.479,3.729,21s2.458,3.4,6.833,4.708A46.9,46.9,0,0,1,12.417,21Zm18.75,4.708-.625,1.063c.646-.1,1.271-.208,1.833-.333a16.493,16.493,0,0,0-.6-1.792Zm-6.021,8.417c3.313,3.125,6.188,4.333,7.479,3.542,1.333-.729,1.729-3.792.667-8.25a47.311,47.311,0,0,1-5,.75A50.468,50.468,0,0,1,25.146,34.125ZM14.833,16.292l.625-1.062c-.646.1-1.271.208-1.833.333a16.493,16.493,0,0,0,.6,1.792Zm6.021-8.417c-3.312-3.125-6.187-4.333-7.5-3.542-1.312.729-1.708,3.792-.646,8.25a47.27,47.27,0,0,1,5-.75A50.464,50.464,0,0,1,20.854,7.875Z" transform="translate(-0.604 -0.965)"/></svg>